<svg xmlns="http://www.w3.org/2000/svg" version="1.1" xmlns:xlink="http://www.w3.org/1999/xlink" xmlns:svgjs="http://svgjs.com/svgjs" width="143" height="128"><svg width="143" height="128" viewBox="0 0 143 128" fill="none" xmlns="http://www.w3.org/2000/svg">
<path d="M142.573 73.322C141.277 84.122 137.497 93.626 131.233 101.834C125.077 110.042 116.869 116.414 106.609 120.95C96.457 125.486 84.793 127.754 71.617 127.754C57.361 127.754 44.887 125.108 34.195 119.816C23.503 114.524 15.187 107.126 9.24699 97.622C3.30699 88.118 0.336992 76.994 0.336992 64.25C0.336992 51.506 3.30699 40.382 9.24699 30.878C15.187 21.374 23.503 13.976 34.195 8.68399C44.887 3.39199 57.361 0.745997 71.617 0.745997C84.793 0.745997 96.457 3.014 106.609 7.55C116.869 12.086 125.077 18.458 131.233 26.666C137.497 34.766 141.277 44.27 142.573 55.178H104.665C103.585 50.534 101.587 46.592 98.671 43.352C95.863 40.004 92.191 37.466 87.655 35.738C83.119 33.902 77.773 32.984 71.617 32.984C64.705 32.984 58.765 34.226 53.797 36.71C48.829 39.194 44.995 42.812 42.295 47.564C39.595 52.208 38.245 57.77 38.245 64.25C38.245 70.73 39.595 76.292 42.295 80.936C44.995 85.58 48.829 89.198 53.797 91.79C58.765 94.274 64.705 95.516 71.617 95.516C77.773 95.516 83.119 94.706 87.655 93.086C92.191 91.358 95.863 88.82 98.671 85.472C101.587 82.124 103.585 78.074 104.665 73.322H142.573Z" fill="#8484BB"></path>
</svg><style>@media (prefers-color-scheme: light) { :root { filter: none; } }
</style></svg>