<?xml version="1.0" standalone="no"?>
<!DOCTYPE svg PUBLIC "-//W3C//DTD SVG 20010904//EN"
 "http://www.w3.org/TR/2001/REC-SVG-20010904/DTD/svg10.dtd">
<svg version="1.0" xmlns="http://www.w3.org/2000/svg"
 width="512.000000pt" height="512.000000pt" viewBox="0 0 512.000000 512.000000"
 preserveAspectRatio="xMidYMid meet">
<metadata>
Created by potrace 1.14, written by Peter Selinger 2001-2017
</metadata>
<g transform="translate(0.000000,512.000000) scale(0.100000,-0.100000)"
fill="#000000" stroke="none">
<path d="M2305 3809 c-255 -34 -519 -140 -701 -280 -72 -55 -202 -192 -251
-264 -83 -122 -146 -272 -179 -425 -27 -122 -27 -448 0 -570 53 -244 160 -435
340 -608 181 -174 393 -280 688 -344 91 -20 132 -22 363 -23 232 0 272 2 372
23 295 59 534 182 719 366 179 179 291 398 329 644 l7 42 -380 0 -379 0 -13
-42 c-39 -131 -150 -266 -263 -321 -113 -55 -195 -70 -377 -71 -130 0 -179 3
-230 18 -286 79 -443 292 -443 601 0 408 268 642 713 622 145 -7 214 -23 325
-77 134 -65 235 -181 275 -317 l13 -43 379 0 380 0 -7 43 c-16 101 -59 239
-105 333 -169 347 -502 586 -938 675 -88 18 -148 23 -337 25 -126 1 -261 -2
-300 -7z"/>
</g>
</svg>
